<svg id="レイヤー_1" data-name="レイヤー 1" xmlns="http://www.w3.org/2000/svg" viewBox="0 0 300 230.55"><defs><style>.cls-1{fill:#fff;}</style></defs><path class="cls-1" d="M200,188.31l98.53,85.89a33.18,33.18,0,0,0,1.45-9.72V101.15Z" transform="translate(0 -67.26)"/><path class="cls-1" d="M150,198.42A17.87,17.87,0,0,0,161.78,194l131-114.15a33.26,33.26,0,0,0-26.06-12.59H33.33A33.26,33.26,0,0,0,7.27,79.85L138.22,194A17.85,17.85,0,0,0,150,198.42Z" transform="translate(0 -67.26)"/><path class="cls-1" d="M0,101.15V264.48a33.18,33.18,0,0,0,1.45,9.72L100,188.3Z" transform="translate(0 -67.26)"/><path class="cls-1" d="M175.47,209.71a38.77,38.77,0,0,1-50.94,0l-8.7-7.58L13.56,291.28a33.16,33.16,0,0,0,19.77,6.54H266.66a33.12,33.12,0,0,0,19.77-6.54L184.17,202.13Z" transform="translate(0 -67.26)"/></svg>