<svg id="レイヤー_1" data-name="レイヤー 1" xmlns="http://www.w3.org/2000/svg" viewBox="0 0 298.38 246.42"><defs><style>.cls-1{fill:#fff;}</style></defs><path class="cls-1" d="M197.48,145.75V99.28l-24.95,4.46v19.13H127.47V103.74l-25-4.46v46.47H72.87L39,219.83v66.52c0,6.33,4.67,11.47,10.43,11.47H250.54c5.77,0,10.44-5.14,10.44-11.47V219.83L226.7,145.75ZM150,264.64a42.15,42.15,0,1,1,42.14-42.15A42.15,42.15,0,0,1,150,264.64Z" transform="translate(-0.81 -51.39)"/><path class="cls-1" d="M253.74,66.49C231.3,57,181.91,51.39,150,51.39c-30.9,0-81.31,5.58-103.75,15.1C23.55,76.12.81,97.67.81,123.06a36.44,36.44,0,0,0,8.6,24.11H57.72c2.87,0,9.17-12.48,9.17-17.58,0-9-4.75-21.43-4.75-21.43.27-6.17,2.72-10.68,12.77-15C93.13,85.33,133.2,85,150,85s56.87.35,75.09,8.18c10,4.32,12.5,8.83,12.77,15,0,0-4.75,12.47-4.75,21.43,0,5.1,6.29,17.58,9.17,17.58h48.31a36.44,36.44,0,0,0,8.6-24.11C299.19,97.67,276.45,76.12,253.74,66.49Z" transform="translate(-0.81 -51.39)"/></svg>