<svg id="レイヤー_2" data-name="レイヤー 2" xmlns="http://www.w3.org/2000/svg" viewBox="0 0 27.13 113.08"><defs><style>.cls-1{fill:#f09587;}.cls-2{fill:#324468;}.cls-3{fill:#485e8a;}.cls-4{fill:#3c3736;}.cls-5{fill:#5a75a9;}.cls-6{fill:#6f6f77;}.cls-7{fill:#8499cd;}.cls-8{fill:#cb7f74;}.cls-9{fill:#7e7e85;}</style></defs><path class="cls-1" d="M56,21.41c.34.89-1,3.67,1.23,3.19,1.63-.35,1.53-3,2-4.23.18-.49.47-.67.35-1.26s-.58-.82-.7-1.32a6.59,6.59,0,0,1,.53-2.9,1.1,1.1,0,0,0-1.29.81c0-.7-.09-2.33-1-2.39s-.56,1.73-.55,2.37c-1-.15-1,.52-.82,1.3-.86-.19-.75.5-.68,1.09C53.53,17.85,55.86,21.09,56,21.41Z" transform="translate(-48 -0.3)"/><polygon class="cls-2" points="22.75 55.62 15.53 86 14.6 107.95 11.06 107.78 9.02 78.26 19.96 54 22.75 55.62"/><path class="cls-3" d="M55.57,54.06s-5,28.82-4,30.8,15,18.89,15,18.89l2.6-2.34L60.18,85.76S58,83.24,58,82.52,69.63,55.19,69.63,55.19Z" transform="translate(-48 -0.3)"/><path class="cls-4" d="M68.77,101.34c.51.51,3.53,4,3.53,4l-1.52,1.43-1.12-1.12a25.29,25.29,0,0,0-.63,2.57c-.07.67-1.67,2.76-2.71,3a1.43,1.43,0,0,1-1.51-.76s.89.15,1.65-1.55.23-5.38.23-5.38Z" transform="translate(-48 -0.3)"/><path class="cls-4" d="M62.59,107.42c0,.71-.14,5.27-.14,5.27l-2.13.08-.06-1.56s-1.73,1.06-2.24,1.5-3.15,1-4.06.44a1.37,1.37,0,0,1-.59-1.55s.56.7,2.3-.08,3.88-3.85,3.88-3.85Z" transform="translate(-48 -0.3)"/><path class="cls-1" d="M57.42,5c-.1.91-.32,2.34-.42,3.26-.07.73-.15,1.46-.22,2.19-.08.91.18,1.07.51,1.89.08.21.05.46.14.66s.38.37.4.47c.06.34-.22.59,0,.92.32.64,1.72.64,2.33.5,1.68-.41,3.06-.94,3.48-3.45A23,23,0,0,0,63.92,7l-3.7-3.45Z" transform="translate(-48 -0.3)"/><polygon class="cls-1" points="9.68 7.72 7.66 10.3 9.87 11.2 9.68 7.72"/><path class="cls-1" d="M61.51,10.89c-.11,1.43-1,4.33-.63,5.76.6-.41,6.31-2.41,6.73-1.69-.92-1.56-2.13-4.3-1.68-6.06-.54-.29-1.29,0-1.86-.05-.75-.12-1.17-.43-2-.14S61.57,10.1,61.51,10.89Z" transform="translate(-48 -0.3)"/><path class="cls-5" d="M68.34,15.19s-.91-1.45-1.2-1.54-5.57,1.2-7,2.91-4.18,9.77-4.18,9.77-1.82,15.81-1.63,16.26-2.08,13.65-2.08,13.65,19.22.09,20.28.27a5.38,5.38,0,0,0,2.62-.63L72.06,38.05l.48-17.32-2.32-4.65Z" transform="translate(-48 -0.3)"/><path class="cls-6" d="M66.6,11.82c.44-.73.85-1.49,1.29-2.21a3.5,3.5,0,0,0,.92-2.54A18.48,18.48,0,0,0,68,5c-.17-.55,0-1.13-.17-1.68a4.32,4.32,0,0,0-1.94-2.15A4,4,0,0,0,63.67.71c-.35,0-.28.1-.56,0a3.68,3.68,0,0,0-.58-.32,4.92,4.92,0,0,0-1.91.07,2.9,2.9,0,0,0-1,.25c-.16.08-.31.27-.47.33s-.36,0-.51.11a2.84,2.84,0,0,0-.82.64,3.32,3.32,0,0,0-1,1.71,1.76,1.76,0,0,0,.58,1.66c.16.11,1.79.6,1.81.28a2.45,2.45,0,0,0,.47,1.19,1.4,1.4,0,0,1,.19,1.2c0,.38-.43,1.58-.21,1.86a1.08,1.08,0,0,0,.8.17c.09-.06,0-.23.09-.31.33-.54.75-1,1.11-1.57s.77-.94,1.21-.38c.67.84-.07,2.23-.4,3a1.53,1.53,0,0,1,1,.54c.4.41.33.45.84.53a6.35,6.35,0,0,1,2,.68S66.43,12.11,66.6,11.82Z" transform="translate(-48 -0.3)"/><path class="cls-7" d="M60.25,18a.15.15,0,0,1-.11,0,.16.16,0,0,1,0-.23,8.57,8.57,0,0,1,3.31-1.78A12.34,12.34,0,0,1,67.1,15a.17.17,0,0,1,0,.33,11.72,11.72,0,0,0-3.55.93,8.6,8.6,0,0,0-3.17,1.68A.16.16,0,0,1,60.25,18Z" transform="translate(-48 -0.3)"/><path class="cls-8" d="M61.66,14h-.07a.18.18,0,0,1-.09-.23l.27-.61.33-.78c.34-.83.34-.83.46-.85h0l.09.05a.18.18,0,0,1,0,.21s-.21.49-.3.72-.23.53-.35.79-.17.4-.26.61A.17.17,0,0,1,61.66,14Z" transform="translate(-48 -0.3)"/><path class="cls-1" d="M57.72,44.76l-.16.05c-.49.15-1.07-.09-1.58.1-.81.3-.43.64-.49,1.35,0,.49-.38.91-.45,1.45a12.15,12.15,0,0,0,.22,1.79c0,.63-.24,1.25.19,1.8s1.06.63,1.24-.08-.67-1-.07-1.5c.35-.29,1.31-.37,1.78-.6A9,9,0,0,0,60.06,48c.93-.74,1.52-3.24.77-4.24-.32-.44-2-.21-2.42.22S58.18,44.59,57.72,44.76Z" transform="translate(-48 -0.3)"/><path class="cls-9" d="M58.3,3.05h0s-.1-.06-.09-.11V2.87a.09.09,0,0,1,.12-.09.12.12,0,0,1,.09.12V3A.11.11,0,0,1,58.3,3.05Zm.22-.65-.05,0a.1.1,0,0,1,0-.14,2.5,2.5,0,0,1,.24-.36.1.1,0,0,1,.15,0,.11.11,0,0,1,0,.15,2.19,2.19,0,0,0-.23.33A.1.1,0,0,1,58.52,2.4Zm.66-.82a.09.09,0,0,1-.07,0,.11.11,0,0,1,0-.15l.31-.29a.11.11,0,0,1,.14.16l-.31.28A.09.09,0,0,1,59.18,1.58Z" transform="translate(-48 -0.3)"/><path class="cls-9" d="M60.34,3.51a.12.12,0,0,1-.1-.07.59.59,0,0,1,0-.13A.64.64,0,0,1,60.29,3,.1.1,0,0,1,60.42,3a.11.11,0,0,1,.06.14.58.58,0,0,0,0,.2.43.43,0,0,0,0,0,.11.11,0,0,1-.06.14Zm.38-.87-.06,0a.1.1,0,0,1,0-.15,4.09,4.09,0,0,1,.28-.33.11.11,0,0,1,.16.15,2.61,2.61,0,0,0-.28.31A.09.09,0,0,1,60.72,2.64Zm.74-.76a.09.09,0,0,1-.08,0,.09.09,0,0,1,0-.14l.33-.28a.12.12,0,0,1,.15,0,.12.12,0,0,1,0,.15l-.32.26A.11.11,0,0,1,61.46,1.88Zm.85-.61a.11.11,0,0,1-.09-.06.1.1,0,0,1,.05-.14,1.2,1.2,0,0,1,.44-.15.11.11,0,0,1,.11.1.1.1,0,0,1-.1.11,1.24,1.24,0,0,0-.36.12Z" transform="translate(-48 -0.3)"/><path class="cls-9" d="M64.8,7.44h0a.1.1,0,0,1-.09-.12,1.62,1.62,0,0,0,0-.32V6.92a.11.11,0,0,1,.1-.11c.06,0,.11.05.11.1a.34.34,0,0,1,0,.1,2,2,0,0,1,0,.35A.11.11,0,0,1,64.8,7.44Zm-.06-1a.12.12,0,0,1-.1-.09c0-.13-.06-.27-.1-.4a.11.11,0,0,1,.08-.13.11.11,0,0,1,.13.07c0,.14.07.28.1.42a.11.11,0,0,1-.08.12Zm-.26-1a.1.1,0,0,1-.1-.08q-.06-.24-.09-.42a.1.1,0,0,1,.09-.12.11.11,0,0,1,.12.09c0,.12,0,.24.08.4a.1.1,0,0,1-.08.13Z" transform="translate(-48 -0.3)"/><path class="cls-5" d="M57.77,20.25c-1.72,2-3.16,4.28-4.68,6.4-1.2,1.67-2.4,3.36-3.56,5.07s-2.16,3.12-1,5.34a9.34,9.34,0,0,0,1.58,1.75c1,1.06,2.08,2.06,3.1,3.1a27.59,27.59,0,0,1,2.73,3.47c.42.62.66,1.3,1.05,1.89s3.89-2,4.26-2.25c.77-.64.87-.63.25-1.25a10.53,10.53,0,0,1-1.76-1.89c-1.46-2.27-3.05-4.48-4.55-6.72,0,0,7.67-8.38,7.17-12.33s-1-3.37-1.58-4.37S57.77,20.25,57.77,20.25Z" transform="translate(-48 -0.3)"/><path class="cls-3" d="M61.5,44a.21.21,0,0,1-.17-.1L56.1,34.68a.18.18,0,0,1,0-.23c.06-.05,5.79-5.52,6.83-8.39s-1.1-6.25-1.12-6.28a.18.18,0,0,1,.06-.26.19.19,0,0,1,.26.06c.09.14,2.26,3.62,1.16,6.62-1,2.76-6,7.63-6.82,8.42l5.16,9.05a.18.18,0,0,1-.07.26A.16.16,0,0,1,61.5,44Z" transform="translate(-48 -0.3)"/><path class="cls-8" d="M57.27,16.91h0a.54.54,0,0,1-.4-.2,1.51,1.51,0,0,1-.34-1,.09.09,0,0,1,.11-.09.1.1,0,0,1,.09.1,1.32,1.32,0,0,0,.28.9.36.36,0,0,0,.26.14h0c.17,0,.26-.08.41-.25a1.37,1.37,0,0,0,.15-.64,1.68,1.68,0,0,1,0-.29.09.09,0,0,1,.12-.07.09.09,0,0,1,.07.11c0,.06,0,.16,0,.27a1.36,1.36,0,0,1-.21.75A.68.68,0,0,1,57.27,16.91Z" transform="translate(-48 -0.3)"/><path class="cls-8" d="M57,18.57l-.26,0a.1.1,0,0,1-.07-.12.1.1,0,0,1,.12-.07c.47.12.54-.15.57-.29v0a1.81,1.81,0,0,0-.18-.67,3.09,3.09,0,0,1-.13-.45.08.08,0,0,1,.08-.1.09.09,0,0,1,.11.08,2.52,2.52,0,0,0,.13.4,1.78,1.78,0,0,1,.18.8h0A.53.53,0,0,1,57,18.57Z" transform="translate(-48 -0.3)"/><path class="cls-8" d="M56.32,19.28h-.08a.08.08,0,0,1-.08-.1.09.09,0,0,1,.1-.09.31.31,0,0,0,.35-.19.49.49,0,0,0,0-.45,4,4,0,0,0-.76-1.1A.1.1,0,0,1,56,17.2a4.18,4.18,0,0,1,.8,1.16.69.69,0,0,1,0,.61A.51.51,0,0,1,56.32,19.28Z" transform="translate(-48 -0.3)"/><path class="cls-8" d="M55.91,19.85a1.27,1.27,0,0,1-.56-.18,1.06,1.06,0,0,1-.41-.37l0-.05a.09.09,0,0,1,0-.13.09.09,0,0,1,.14,0l0,0a.87.87,0,0,0,.34.32c.21.11.51.24.66.08a.24.24,0,0,0,.08-.18c0-.22-.3-.48-.54-.69a2.56,2.56,0,0,1-.33-.32.1.1,0,0,1,.16-.12,1.68,1.68,0,0,0,.3.29c.28.25.59.53.61.83a.45.45,0,0,1-.14.33A.42.42,0,0,1,55.91,19.85Z" transform="translate(-48 -0.3)"/><path class="cls-8" d="M57.77,19.81a.11.11,0,0,1-.08,0,1.83,1.83,0,0,1-.19-1.32,6.94,6.94,0,0,1,.17-1,.75.75,0,0,0,0-.16,1.31,1.31,0,0,1,.31-.73.09.09,0,0,1,.13,0,.1.1,0,0,1,0,.14,1.34,1.34,0,0,0-.24.62.62.62,0,0,1,0,.16,8.83,8.83,0,0,0-.17,1c0,.22-.1.87.15,1.17a.1.1,0,0,1,0,.14A.07.07,0,0,1,57.77,19.81Z" transform="translate(-48 -0.3)"/></svg>