<?xml version="1.0" encoding="utf-8"?>
<!-- Generator: Adobe Illustrator 24.2.1, SVG Export Plug-In . SVG Version: 6.00 Build 0)  -->
<svg version="1.1" id="_x32_" xmlns="http://www.w3.org/2000/svg" xmlns:xlink="http://www.w3.org/1999/xlink" x="0px" y="0px"
	 viewBox="0 0 512 512" style="enable-background:new 0 0 512 512;" xml:space="preserve">
<style type="text/css">
	.st0{fill:#FFFFFF;}
</style>
<path class="st0" d="M436.1,97.5H73.9C53.5,97.5,37,114,37,134.4v264.3c0,20.4,16.5,36.9,36.9,36.9h362.2
	c20.4,0,36.9-16.5,36.9-36.9V134.3C472.9,114,456.4,97.5,436.1,97.5z M292.7,292.1l-0.2,0.2c-8.8,8.9-20.8,13.9-33.4,13.8
	c-12.5,0-24.6-5-33.4-13.9l0,0L74.2,139.7l16.4-16.3L242.3,276v-0.1c4.4,4.5,10.5,7,16.9,7s12.4-2.5,17-7.1l151.6-152.5l16.4,16.3
	L292.7,292.1z"/>
</svg>
