<?xml version="1.0" encoding="utf-8"?>
<!-- Generator: Adobe Illustrator 24.2.1, SVG Export Plug-In . SVG Version: 6.00 Build 0)  -->
<svg version="1.1" id="レイヤー_1" xmlns="http://www.w3.org/2000/svg" xmlns:xlink="http://www.w3.org/1999/xlink" x="0px"
	 y="0px" viewBox="0 0 91.8 16.2" style="enable-background:new 0 0 91.8 16.2;" xml:space="preserve">
<style type="text/css">
	.st0{fill:#FFFFFF;}
</style>
<g>
	<g>
		<path class="st0" d="M32,6.7l1.1-1.2l0.1,0c0.7,0.4,1.4,0.8,2,1.2c0.6-1,1.1-2.1,1.5-3.4l0.1,0l1.8,0.7l0,0.1
			c-0.5,1.3-1.1,2.6-1.8,3.8c0.7,0.6,1.3,1.2,1.9,1.8l0,0.1l-1.3,1.3h-0.1c-0.5-0.6-1-1.1-1.6-1.6c-1.1,1.4-2.4,2.6-4,3.6
			c-0.1,0-0.1,0.1-0.2,0.1c-0.1,0-0.1,0-0.2-0.1L30,12c1.7-0.9,3.2-2.1,4.3-3.7c-0.7-0.5-1.4-1-2.3-1.4V6.7z"/>
		<path class="st0" d="M49.4,9.1L49.4,9.1l-1.9,0.1h-5.4l-1.8,0l-0.1-0.1V7.4l0.1-0.1l1.7,0h5.3l1.8,0l0.1,0.1V9.1z"/>
		<path class="st0" d="M50.3,11.5c1.6-1.4,2.5-3.4,2.6-6.1L53,5.3l1.7,0.1l0.1,0.1c-0.1,2.9-1.1,5-2.5,6.6c-0.1,0.1-0.2,0.2-0.3,0.2
			c0,0-0.1,0-0.2-0.1L50.3,11.5z M57.3,4.3L57.3,4.3l0.1,5c1.4-1,2.7-2.2,3.7-3.4l0.5,1.8c0,0.1,0.1,0.2,0.1,0.3
			c0,0.1,0,0.1-0.1,0.2c-1.2,1.3-2.5,2.4-4.5,3.7c-0.1,0.1-0.2,0.1-0.3,0.1c-0.1,0-0.1,0-0.2-0.1l-1.2-0.9l0.1-1.4V4.4l0.1-0.1H57.3
			z"/>
	</g>
</g>
</svg>
