<?xml version="1.0" encoding="utf-8"?>
<!-- Generator: Adobe Illustrator 24.2.1, SVG Export Plug-In . SVG Version: 6.00 Build 0)  -->
<svg version="1.1" xmlns="http://www.w3.org/2000/svg" xmlns:xlink="http://www.w3.org/1999/xlink" x="0px" y="0px"
	 viewBox="0 0 91.8 16.2" style="enable-background:new 0 0 91.8 16.2;" xml:space="preserve">
<style type="text/css">
	.st0{display:none;}
	.st1{display:inline;}
	.st2{fill:#FFFFFF;}
</style>
<g id="レイヤー_1" class="st0">
	<g class="st1">
		<path class="st2" d="M17.8,7.2c-0.6,0.1-1.3,0.1-1.9,0.2l-0.1-0.1l-0.1-1.2L15.8,6c0.7,0,1.3-0.1,2-0.2V4.1L17.9,4h1.3l0.1,0.1
			v1.5c0.4-0.1,0.8-0.2,1.2-0.3h0.1l0.1,1.2l-0.1,0.1c-0.4,0.1-0.9,0.2-1.3,0.3v1c0.6-0.2,1.4-0.4,2.1-0.4c1.6,0,2.5,1,2.5,2.1
			c0,1.5-1,2.3-2.5,2.3c-0.6,0-1-0.1-1.4-0.3l-0.1-0.1c0,0,0,0,0-0.1l0.3-1.2c0.3,0.1,0.7,0.3,1,0.3l0,0c0.6,0,1-0.3,1-0.9
			c0-0.5-0.4-0.9-1.1-0.9c-0.6,0-1.2,0.2-1.9,0.5v2.2c0,0.5-0.3,0.9-1.1,0.9c-0.6,0-2.5-0.9-2.5-1.8c0-0.6,1-1.6,2.1-2.2L17.8,7.2z
			 M17.8,9.8c-0.4,0.3-0.7,0.5-0.7,0.7s0.4,0.4,0.6,0.4c0.1,0,0.1,0,0.1-0.2V9.8z M21.4,6l0.7-1h0.1c0.9,0.3,1.7,0.7,2.3,1.4v0.1
			l-0.7,1.1h-0.1C23,6.8,22.4,6.4,21.4,6L21.4,6z"/>
		<path class="st2" d="M26,3.7h1.1h1.7h1.1L30,3.8V5v1.6v1.1l-0.1,0.1h-1.1h-1.5V13H26V9.6V5.1L26,3.7L26,3.7z M27.3,4.8v0.5h1.3
			V4.8H27.3z M28.6,6.1h-1.3v0.5h1.3V6.1z M32.2,11.8H31v-0.5h-1.7v0.6H28v-1.5V9.3V8.4l0.1-0.1h1.1h2h1.1l0.1,0.1v0.9v1.1v1.2
			c0.2,0,0.5,0,0.7,0c0.1,0,0.1-0.1,0.1-0.3V7.7h-1.6h-1.1l-0.1-0.1V6.5V4.9V3.7l0.1-0.1h1.1h1.8h1.1l0.1,0.1V5v3.7v2.8
			c0,0.9-0.6,1.2-1.8,1.2c-0.2,0-0.2,0-0.3-0.1L32.2,11.8z M29.4,9.3v1h1.7v-1H29.4z M31.8,4.8v0.5h1.4V4.8H31.8z M33.2,6.1h-1.4
			v0.5h1.4V6.1z"/>
		<path class="st2" d="M36.9,4.8h1.4l0.1,0.1C38.3,6,38.2,7,38.2,7.6c0,0.9,0.1,1.5,0.2,2c0.1,0.4,0.2,0.7,0.5,0.7s0.6-0.5,0.8-1.4
			l1,1.3l0.1,0.1v0.1c-0.4,1-1,1.8-1.8,1.8c-0.6,0-1.2-0.5-1.6-1.3C37,10.1,36.7,9,36.7,7.7C36.7,6.9,36.8,5.9,36.9,4.8L36.9,4.8z
			 M41.6,6.5l1-0.8h0.1c1.1,0.8,2.1,1.9,2.6,3.2V9L44,9.8h-0.1C43.3,8.4,42.6,7.3,41.6,6.5L41.6,6.5z"/>
		<path class="st2" d="M53.4,7.9L53.4,7.9h-1.2H50h-1.1l-0.1-0.1V7.2C48.4,7.5,48,7.8,47.6,8c-0.1,0.1-0.2,0.1-0.2,0.1
			s-0.1,0-0.1-0.1l-0.9-1c1.8-0.9,3.1-2.1,4.1-3.7h0.1L52,3.7v0.1c0,0.1-0.1,0.1-0.1,0.2C53,5.1,54,6,56,6.8l-0.9,1.1
			C55,8,54.9,8.1,54.8,8.1s-0.1,0-0.2-0.1c-0.4-0.2-0.8-0.5-1.2-0.8C53.4,7.2,53.4,7.9,53.4,7.9z M53,12.8v-0.5h-3.9v0.5h-1.4v-1.9
			v-0.7V8.8l0.1-0.1h1.5H53h1.5l0.1,0.1v1.4v0.6v2C54.6,12.8,53,12.8,53,12.8z M49.2,11.2H53V9.9h-3.9v1.3H49.2z M50,6.7h2.3h0.5
			C52.1,6.2,51.5,5.6,51,5c-0.5,0.6-1,1.1-1.6,1.6L50,6.7z"/>
		<path class="st2" d="M59.3,6.8c-0.5,0.2-1,0.4-1.5,0.6h-0.1l-0.4-1.2V6.1c0.8-0.3,1.5-0.5,2-0.8c0-0.5,0-1,0.1-1.5l0.1-0.1h1.3
			l0.1,0.1c0,0.5-0.1,0.9-0.1,1.3c0.2,0.1,0.4,0.3,0.4,0.6c0,0.3-0.1,0.5-0.5,1v0.1C61.4,6.2,62.2,6,63,6c1.7,0,2.8,1.1,2.8,2.7
			s-0.9,2.7-2.8,3.1c-0.1,0-0.1,0-0.2,0c-0.1,0-0.1,0-0.2-0.1l-1-1.1c1.7-0.2,2.6-0.8,2.7-2.1c0-0.8-0.5-1.3-1.3-1.3
			c-0.5,0-1.4,0.3-2.3,1c0,1,0,2.1,0.1,3.5c0,0.5-0.3,0.8-0.8,0.8c-0.4,0-0.6-0.2-0.7-0.7c-0.1-0.3-0.3-0.7-0.8-1.2
			c-0.1,0.2-0.2,0.4-0.4,0.6H58l-0.9-0.9v-0.1C58,9,58.6,8.3,59.4,7.3L59.3,6.8z M59.1,10.4L59.1,10.4c0.1,0,0.2,0,0.2-0.2
			c0-0.3,0-0.6,0-0.8c-0.2,0.3-0.5,0.6-0.6,0.9C58.8,10.3,59,10.4,59.1,10.4z"/>
		<path class="st2" d="M69.2,4.8L69.2,4.8l1.4-0.1l0.1,0.1v1.8c0.7-0.1,1.4-0.3,2.2-0.4c0-0.4,0-0.8,0-1.2s0-0.7,0-1.1L73,3.8h1.3
			l0,0.2c0,0.6,0,1.3,0,2c0.5-0.1,1.1-0.2,1.6-0.2H76L76.1,7L76,7.1c-0.6,0.1-1.2,0.1-1.8,0.2c0,1.6-0.2,1.9-0.4,2.2
			c-0.3,0.3-0.6,0.5-1.2,0.5c-0.3,0-0.6,0-0.9-0.1c-0.1,0-0.1-0.1-0.1-0.1l-0.2-1.2c0.4,0.1,0.7,0.1,0.9,0.1c0.2,0,0.3,0,0.3-0.1
			c0.1-0.1,0.1-0.4,0.1-1C72,7.7,71.3,7.9,70.5,8v2c0,0.6,0.1,0.7,1.3,0.7c1.1,0,2.1-0.1,3.1-0.2l0.1,0.1l0.1,1.4L75,12.1
			c-0.9,0.1-1.7,0.2-3.2,0.2c-2.1,0-2.8-0.5-2.8-1.8v-2c-0.5,0.1-1,0.3-1.6,0.4h-0.1L67,7.7V7.6c0.7-0.2,1.3-0.3,2-0.5V4.8H69.2z"/>
	</g>
</g>
<g id="レイヤー_1のコピー">
	<g>
		<path class="st2" d="M32.1,7.5c-0.6,0.1-1.3,0.1-1.9,0.2l-0.1-0.1l-0.1-1.2l0.1-0.1c0.7,0,1.3-0.1,2-0.2l0-1.8l0.1-0.1h1.3
			l0.1,0.1l0,1.5c0.4-0.1,0.8-0.2,1.2-0.3l0.1,0L35,6.9l-0.1,0.1C34.4,7,34,7.1,33.6,7.2l0,1c0.6-0.2,1.4-0.4,2.1-0.4
			c1.6,0,2.5,1,2.5,2.2c0,1.5-1,2.3-2.5,2.3c-0.6,0-1-0.1-1.4-0.3c0,0-0.1-0.1-0.1-0.1c0,0,0,0,0-0.1l0.3-1.2c0.3,0.1,0.7,0.3,1,0.3
			h0c0.6,0,1-0.3,1-0.9c0-0.5-0.4-0.9-1.1-0.9c-0.6,0-1.2,0.2-1.9,0.5v2.2c0,0.5-0.3,0.9-1.1,0.9c-0.6,0-2.5-0.9-2.5-1.9
			c0-0.6,1-1.6,2.1-2.2L32.1,7.5z M32.2,10.1c-0.4,0.3-0.7,0.5-0.7,0.7c0,0.2,0.4,0.4,0.6,0.4c0.1,0,0.1-0.1,0.1-0.2V10.1z
			 M35.8,6.2l0.7-1l0.1,0c0.9,0.3,1.7,0.7,2.3,1.4l0,0.1l-0.7,1.1l-0.1,0C37.4,7.1,36.8,6.6,35.8,6.2L35.8,6.2z"/>
		<path class="st2" d="M46.9,4.9h-1.3v0.3h2.5l1.2,0l0.1,0.1l0,0.9v0.1l0,1.2H48V6.1h-2.4l0,2h-1.4l0-2v0h-2.4v1.5h-1.3l0.1-1.2V6.2
			l0-0.9l0.1-0.1l1.1,0h2.5V4.9H43l-1.6,0l-0.1-0.1V4l0.1-0.1l1.6,0h3.9l1.6,0L48.6,4v0.9l-0.1,0.1L46.9,4.9z M44.2,12.1l0-0.4h-1.4
			v0.6h-1.4l0-1.8v-1l0-1.1l0.1-0.1l1.5,0h4l1.5,0l0.1,0.1l0,1.1v0.7l0,1.5l-0.1,0l-1.5,0h-1.4v0.1c0,0.3,0,0.3,1.1,0.3
			c1.4,0,1.7,0,1.8-0.1c0.2-0.1,0.3-0.2,0.3-0.8l1,0.5c0.1,0,0.1,0.1,0.1,0.1c0,0.1,0,0.2,0,0.3c-0.1,0.3-0.1,0.6-0.4,0.8
			c-0.3,0.2-0.7,0.3-2.7,0.3C44.6,13.1,44.2,12.8,44.2,12.1L44.2,12.1z M43.2,7h-0.4l-0.6,0L42.1,7V6.4l0.1-0.1l0.6,0h0.4l0.6,0
			l0.1,0.1V7L43.9,7L43.2,7z M43.2,8h-0.4l-0.6,0L42.1,8V7.4l0.1-0.1l0.6,0h0.4l0.6,0l0.1,0.1V8L43.9,8L43.2,8z M42.7,9.5h1.5V9.2
			h-1.5V9.5z M44.2,10.7v-0.4h-1.5v0.4H44.2z M45.6,9.2v0.4h1.5V9.2H45.6z M47.1,10.4h-1.5v0.4h1.5V10.4z M47,7h-0.4L46,7L45.9,7
			V6.4L46,6.3l0.6,0H47l0.6,0l0.1,0.1V7L47.6,7L47,7z M47,8h-0.4L46,8L45.9,8V7.4L46,7.3l0.6,0H47l0.6,0l0.1,0.1V8L47.6,8L47,8z"/>
		<path class="st2" d="M56.2,6.4H57V5.4c-0.4,0-0.9,0.1-1.3,0.1h0c-0.1,0-0.2,0-0.2-0.1l-0.5-1c1.8-0.1,3.3-0.3,4.4-0.6l0.1,0
			c0.4,0.3,0.7,0.5,1.1,0.9l0,0.1c-0.6,0.1-1.3,0.3-2,0.4v1.3h0.8l1.3,0l0.1,0v1.1l-0.1,0l-1.3,0h-0.8v1.2h0.3l1.2,0l0.1,0.1l0,1.1
			v1l0,2h-1.4v-0.6h-1.8v0.7h-1.4l0-2.1v-1l0-1.1l0.1-0.1l1.2,0H57V7.6h-0.8l-1.3,0l-0.1-0.1V6.5l-1.2,0h-1.5l-1.1,0l-0.1-0.1v-1
			L51,5.3l1.2,0h1.5l1.2,0l0.1,0v1L56.2,6.4z M53.4,13v-0.5h-0.9v0.6h-1.2l0-1.8v-0.5l0-1l0.1-0.1l1.1,0h0.9l1.2,0l0.1,0.1l0,1v0.6
			l0.1,1.6H53.4z M53.5,5h-0.9l-1,0l-0.1-0.1V4l0.1-0.1l1,0h0.9l1,0l0.1,0v1l-0.1,0L53.5,5z M53.5,7.9h-0.9l-1,0l-0.1-0.1v-1
			l0.1-0.1l1,0h0.9l1,0l0.1,0.1v1l-0.1,0L53.5,7.9z M53.5,9.3h-0.9l-1,0l-0.1-0.1v-1l0.1-0.1l1,0h0.9l1,0l0.1,0v1l-0.1,0L53.5,9.3z
			 M52.5,11.4h0.9v-0.7h-0.9V11.4z M56.8,11.3h1.8V10h-1.8V11.3z"/>
	</g>
</g>
</svg>
