<svg data-name="レイヤー 1" xmlns="http://www.w3.org/2000/svg" viewBox="0 0 300 230.55"><path d="M200 121.05l98.53 85.89a33.18 33.18 0 001.45-9.72V33.89zm-50 10.11a17.87 17.87 0 0011.78-4.42l131-114.15A33.26 33.26 0 00266.72 0H33.33A33.26 33.26 0 007.27 12.59l130.95 114.15a17.85 17.85 0 0011.78 4.42zM0 33.89v163.33a33.18 33.18 0 001.45 9.72l98.55-85.9zm175.47 108.56a38.77 38.77 0 01-50.94 0l-8.7-7.58-102.27 89.15a33.16 33.16 0 0019.77 6.54h233.33a33.12 33.12 0 0019.77-6.54l-102.26-89.15z" fill="#fff"/></svg>