<svg id="レイヤー_1" data-name="レイヤー 1" xmlns="http://www.w3.org/2000/svg" viewBox="0 0 298.38 246.42"><defs><style>.cls-1{fill:#fff}</style></defs><path class="cls-1" d="M197.48 145.75V99.28l-24.95 4.46v19.13h-45.06v-19.13l-25-4.46v46.47h-29.6L39 219.83v66.52c0 6.33 4.67 11.47 10.43 11.47h201.11c5.77 0 10.44-5.14 10.44-11.47v-66.52l-34.28-74.08zM150 264.64a42.15 42.15 0 1142.14-42.15A42.15 42.15 0 01150 264.64z" transform="translate(-.81 -51.39)"/><path class="cls-1" d="M253.74 66.49C231.3 57 181.91 51.39 150 51.39c-30.9 0-81.31 5.58-103.75 15.1C23.55 76.12.81 97.67.81 123.06a36.44 36.44 0 008.6 24.11h48.31c2.87 0 9.17-12.48 9.17-17.58 0-9-4.75-21.43-4.75-21.43.27-6.17 2.72-10.68 12.77-15C93.13 85.33 133.2 85 150 85s56.87.35 75.09 8.18c10 4.32 12.5 8.83 12.77 15 0 0-4.75 12.47-4.75 21.43 0 5.1 6.29 17.58 9.17 17.58h48.31a36.44 36.44 0 008.6-24.11c0-25.41-22.74-46.96-45.45-56.59z" transform="translate(-.81 -51.39)"/></svg>