<svg xmlns="http://www.w3.org/2000/svg" viewBox="0 0 91.8 16.2"><path d="M32 6.7l1.1-1.2h.1c.7.4 1.4.8 2 1.2.6-1 1.1-2.1 1.5-3.4h.1l1.8.7v.1c-.5 1.3-1.1 2.6-1.8 3.8.7.6 1.3 1.2 1.9 1.8v.1l-1.3 1.3h-.1c-.5-.6-1-1.1-1.6-1.6-1.1 1.4-2.4 2.6-4 3.6-.1 0-.1.1-.2.1s-.1 0-.2-.1L30 12c1.7-.9 3.2-2.1 4.3-3.7-.7-.5-1.4-1-2.3-1.4v-.2zm17.4 2.4l-1.9.1h-7.2l-.1-.1V7.4l.1-.1h8.8l.1.1v1.7zm.9 2.4c1.6-1.4 2.5-3.4 2.6-6.1l.1-.1 1.7.1.1.1c-.1 2.9-1.1 5-2.5 6.6-.1.1-.2.2-.3.2 0 0-.1 0-.2-.1l-1.5-.7zm7-7.2l.1 5c1.4-1 2.7-2.2 3.7-3.4l.5 1.8c0 .1.1.2.1.3 0 .1 0 .1-.1.2-1.2 1.3-2.5 2.4-4.5 3.7-.1.1-.2.1-.3.1-.1 0-.1 0-.2-.1l-1.2-.9.1-1.4V4.4l.1-.1h1.7z" fill="#fff"/></svg>