<svg xmlns="http://www.w3.org/2000/svg" viewBox="0 0 91.8 16.2"><path d="M32.1 7.5c-.6.1-1.3.1-1.9.2l-.1-.1-.1-1.2.1-.1c.7 0 1.3-.1 2-.2V4.3l.1-.1h1.3l.1.1v1.5l1.2-.3h.1l.1 1.4-.1.1c-.5 0-.9.1-1.3.2v1c.6-.2 1.4-.4 2.1-.4 1.6 0 2.5 1 2.5 2.2 0 1.5-1 2.3-2.5 2.3-.6 0-1-.1-1.4-.3l-.1-.1v-.1l.3-1.2c.3.1.7.3 1 .3.6 0 1-.3 1-.9 0-.5-.4-.9-1.1-.9-.6 0-1.2.2-1.9.5v2.2c0 .5-.3.9-1.1.9-.6 0-2.5-.9-2.5-1.9 0-.6 1-1.6 2.1-2.2l.1-1.1zm.1 2.6c-.4.3-.7.5-.7.7 0 .2.4.4.6.4.1 0 .1-.1.1-.2v-.9zm3.6-3.9l.7-1h.1c.9.3 1.7.7 2.3 1.4v.1l-.7 1.1h-.1c-.7-.7-1.3-1.2-2.3-1.6zm11.1-1.3h-1.3v.3h3.7l.1.1v2.2H48V6.1h-2.4v2h-1.4v-2h-2.4v1.5h-1.3l.1-1.2V5.3l.1-.1h3.6v-.3h-2.9l-.1-.1V4l.1-.1h7.1l.1.1v.9l-.1.1-1.6-.1zm-2.7 7.2v-.4h-1.4v.6h-1.4V8.4l.1-.1h7l.1.1v3.3h-3v.1c0 .3 0 .3 1.1.3 1.4 0 1.7 0 1.8-.1.2-.1.3-.2.3-.8l1 .5c.1 0 .1.1.1.1v.3c-.1.3-.1.6-.4.8-.3.2-.7.3-2.7.3-2.2-.1-2.6-.4-2.6-1.1zm-1-5.1h-1.1v-.6l.1-.1h1.6l.1.1V7h-.7zm0 1h-1.1v-.6l.1-.1h1.6l.1.1V8h-.7zm-.5 1.5h1.5v-.3h-1.5v.3zm1.5 1.2v-.4h-1.5v.4h1.5zm1.4-1.5v.4h1.5v-.4h-1.5zm1.5 1.2h-1.5v.4h1.5v-.4zM47 7h-1.1v-.6l.1-.1h1.6l.1.1V7H47zm0 1h-1.1v-.6l.1-.1h1.6l.1.1V8H47zm9.2-1.6h.8v-1c-.4 0-.9.1-1.3.1-.1 0-.2 0-.2-.1l-.5-1c1.8-.1 3.3-.3 4.4-.6h.1c.4.3.7.5 1.1.9v.1c-.6.1-1.3.3-2 .4v1.3h2.2v1.1h-2.2v1.2h1.5l.1.1V13h-1.4v-.6H57v.7h-1.4V8.9l.1-.1H57V7.6h-2.1l-.1-.1v-1H51l-.1-.1v-1l.1-.1h4v1l1.2.1zM53.4 13v-.5h-.9v.6h-1.2V9.8l.1-.1h3.2l.1.1v1.6l.1 1.6h-1.4zm.1-8h-1.9l-.1-.1V4l.1-.1h3v1h-.1l-1 .1zm0 2.9h-1.9l-.1-.1v-1l.1-.1h2.9l.1.1v1h-.1l-1 .1zm0 1.4h-1.9l-.1-.1v-1l.1-.1h3v1h-.1l-1 .2zm-1 2.1h.9v-.7h-.9v.7zm4.3-.1h1.8V10h-1.8v1.3z" fill="#fff"/></svg>