<svg id="レイヤー_2" data-name="レイヤー 2" xmlns="http://www.w3.org/2000/svg" xmlns:xlink="http://www.w3.org/1999/xlink" viewBox="0 0 39.49 120.05"><defs><linearGradient id="ブラックにフェード_1" x1="90.45" y1="14.61" x2="97.54" y2="14.61" gradientUnits="userSpaceOnUse"><stop offset="0" stop-color="#231815"/><stop offset=".09" stop-color="#231815"/><stop offset="1" stop-color="#231815"/></linearGradient><linearGradient id="ブラックにフェード_1-2" x1="93.06" y1="11.22" x2="106.75" y2="11.22" xlink:href="#ブラックにフェード_1"/><linearGradient id="ブラックにフェード_1-3" x1="99.94" y1="9.76" x2="106.23" y2="9.76" xlink:href="#ブラックにフェード_1"/><style>.cls-1{fill:#f2a294}.cls-2{fill:#8a8e90}.cls-5{fill:#d57976}.cls-8{fill:#bebeb8}.cls-10{fill:#989793}</style></defs><path class="cls-1" d="M101.25 122.13a2.69 2.69 0 01-.16-.29 3.6 3.6 0 00-.39-.62 4.23 4.23 0 00-.25-.42 3 3 0 00-.4-.33c-.3-.24-.77-.64-.47-1.1a1.22 1.22 0 00.25-.41c0-.13.07-.3.21-.33s.37.14.55.25a3.71 3.71 0 00.61.28c.15.07.44.11.52.27s0 .16 0 .23.45 1.43.59 1.78a9 9 0 00.36.85c.16.31.48.53.62.85s-.36.25-.53.2a3.35 3.35 0 01-.91-.49 2.56 2.56 0 01-.6-.72z" transform="translate(-85.78 -4.52)"/><path class="cls-1" d="M97.39 69.2l2.53 14.39-.76 9.13.66 26.42 1.85 2.14s1-36.06 3-49.19z" transform="translate(-85.78 -4.52)"/><path class="cls-2" d="M98.21 121.2c-.3-.56.36-1.37.83-1.68s.46.07.67.34a41 41 0 002.82 3.23c.24.14.87-.08 1.14 0s1.57.57 1.66.84-.11.37-.33.41a5.83 5.83 0 01-1.32.1c-.4 0-.81 0-1.22-.09a4.67 4.67 0 01-.75-.1c-.6-.18-.84-.83-1.2-1.26a4.69 4.69 0 00-1-1 7.7 7.7 0 01-1.17-.63 1 1 0 01-.13-.16z" transform="translate(-85.78 -4.52)"/><path class="cls-2" d="M98.21 121.2a2.67 2.67 0 01.43.78c.12.4.44 2.58.44 2.58h.15l.19-2.87z" transform="translate(-85.78 -4.52)"/><path class="cls-1" d="M88.78 118.08v-.33a4.47 4.47 0 000-.73 4 4 0 000-.49 2.83 2.83 0 00-.13-.5c-.11-.37-.27-1 .24-1.16a1.46 1.46 0 00.44-.2c.11-.08.23-.21.37-.15s.22.33.3.52a4.19 4.19 0 00.34.58c.08.14.61-.34.59-.16s-.4.82-.43.88-.68 2.39-.73 2.7.09.71 0 1-.44 0-.55-.14a3.05 3.05 0 01-.46-.92 2.36 2.36 0 01.02-.9z" transform="translate(-85.78 -4.52)"/><path class="cls-1" d="M101.1 69.74l1.49 15.57-3 8.15-10.26 21.35.14 4.37s10.65-20.74 16.4-28.59c.29-.4.12-8.61-1.1-18.13z" transform="translate(-85.78 -4.52)"/><path class="cls-2" d="M87.22 115.71c.12-.65 1.11-1 1.65-1s.3.3.29.64a38.22 38.22 0 00.09 4.32c.09.24.69.38.84.59s.82 1.32.71 1.61a.36.36 0 01-.5.19 4.92 4.92 0 01-1-.6 8.19 8.19 0 01-.84-.72 3.24 3.24 0 01-.5-.48c-.34-.47-.12-1.16-.11-1.73a4.6 4.6 0 00-.13-1.39c-.12-.4-.43-.73-.47-1.17a.48.48 0 01-.03-.26z" transform="translate(-85.78 -4.52)"/><path class="cls-2" d="M87.22 115.71a3.08 3.08 0 01-.17.91c-.16.41-1.27 2.5-1.27 2.5l.1.09 1.92-2.44z" transform="translate(-85.78 -4.52)"/><path fill="#bf4847" d="M28.04 35.31l11.45-14.33-9.4-3.75-10.04 12.48 7.99 5.6z"/><path fill="#fff" d="M28.19 33.38l9.35-11.7-7.37-3.14-8.5 10.23 6.52 4.61z"/><path class="cls-1" d="M104 22.48c.37-1.28 1.62-4.33 1.9-4a1.56 1.56 0 00.12.17 3.55 3.55 0 01.78-1.65c.35.14-.2 1.59-.24 1.89a2.08 2.08 0 01.38-.41c.17.12.08.34 0 .5-.21.75-.38 1.28-.6 2-.11.39-.19.78-.28 1.18 0 .08-.15.43 0 .47s.31-.33.35-.43a2.29 2.29 0 00.22-.73c0-.37.13-1 .5-1.18s.21.16.17.4-.13.59-.16.89 0 .51 0 .73a6.29 6.29 0 01-.53 1.15 14.44 14.44 0 00-.65 1.38 4.47 4.47 0 00-.35.92c0 .32-.09.66-.13 1a8.65 8.65 0 00-.07 1.25 8.71 8.71 0 00.57 2.3 6.26 6.26 0 00-1.41.67 9.74 9.74 0 01-.51-1.33 3.71 3.71 0 00-.26-.86 4.91 4.91 0 00-.44-.89 8.36 8.36 0 00-.66-.55 1.88 1.88 0 01-.3-.73c-.09-.28-.17-.57-.26-.85a9.28 9.28 0 00-.57-1.71c-.11-.18-.49-1 .06-.64s.78.78 1.21 1.11.39-.13.52-.4a10.27 10.27 0 00.64-1.65z" transform="translate(-85.78 -4.52)"/><path class="cls-5" d="M104.34 23.39a.09.09 0 000-.06l1.52-4.24a.17.17 0 00-.1-.21.17.17 0 00-.21.1l-1.52 4.24a.17.17 0 00.1.21.15.15 0 00.21-.04zm.73.11a.21.21 0 000-.06l1.44-4.27a.16.16 0 10-.31-.11l-1.44 4.27a.17.17 0 00.1.21.17.17 0 00.21-.04z" transform="translate(-85.78 -4.52)"/><path d="M95.31 16.77a1.21 1.21 0 002 .09c.54-.54.14-2-.06-2.77-.41-1.43-2.77-1.93-4.12-2.5-.63-.26-1.66-.8-2.39.41-.46.76.3 1.85 1 2.05-1.32 0-1.31 1.37-1.12 1.82s1 1.26 1.59.73a1.12 1.12 0 00.6 1.16c.9.43 2.35.31 2.59-.91-.06 0-.09-.09-.09-.08z" transform="translate(-85.78 -4.52)" fill="url(#ブラックにフェード_1)"/><path d="M93.15 10.29a6.41 6.41 0 00-.09 1.06 6.53 6.53 0 006.39 6.58 7.5 7.5 0 002.45-.41c1.41-.48 2.64-3.78 3.57-4.88 1.53-1.8 1.78-3.09.27-5.06a7.46 7.46 0 00-7.44-2.91 7.56 7.56 0 00-2.71 1.1 6.49 6.49 0 00-2.44 4.52z" transform="translate(-85.78 -4.52)" fill="url(#ブラックにフェード_1-2)"/><path class="cls-1" d="M102 26.63a5.12 5.12 0 00-1.24.73c-.93.94-1.48 3.19-3.19 3.12s-2-3.78-1.32-4.83A17.82 17.82 0 0098 22.34a24.18 24.18 0 00.5-6.12c1.8.81 3.57-.15 3.81 1.79.14 1.15.1 5.47.55 6.51s2.38 2.95 3.13 3.86c-.4-.48-2.82-2.33-3.99-1.75z" transform="translate(-85.78 -4.52)"/><path class="cls-8" d="M96.06 53.45a49.82 49.82 0 011.14-6.34c.23-2.09-4.82-20.55-.92-22.21 3-.1 4.17.45 5.45.22 3.63-.66 6.08 5.92 7.33 8l-.46 12.45.58 8.1z" transform="translate(-85.78 -4.52)"/><path class="cls-1" d="M98.59 16.41c.56 1 1.62 1.39 2.68 2l.11.06a11.35 11.35 0 003.33.91 10.12 10.12 0 00.94-2.17c0-.1 0-.2.08-.31a16.4 16.4 0 00.42-3.2s.66-4.6-.66-5.23c-1-.48-3.22.91-4 1.55a13.42 13.42 0 00-2.32 2.82c-.7 1.08-1.17 2.41-.58 3.57z" transform="translate(-85.78 -4.52)"/><path class="cls-1" d="M96.56 14.07c0 1.82 1.65 2.08 2.58 2.08s.86-1.15.86-2.09a1.7 1.7 0 00-3.39 0z" transform="translate(-85.78 -4.52)"/><path d="M106.23 9.65a1.6 1.6 0 01-.92 1.39 8 8 0 01-2.48 1.3 7.33 7.33 0 00.82-2.06c-.5.61-.82 1.27-1.34 1.9a5.59 5.59 0 01-1.74 1.3 4.67 4.67 0 01-.52-3.38 5.91 5.91 0 011.47-2.78c.47-.53 1.27-1.38 2-1.27a3.12 3.12 0 011.79 1.29 4.34 4.34 0 01.86 1.95 2.3 2.3 0 01.06.36z" transform="translate(-85.78 -4.52)" fill="url(#ブラックにフェード_1-3)"/><path class="cls-1" d="M19.95 8.18l1.5 2.8-1.71.38.21-3.18z"/><path class="cls-8" d="M103.61 25.67s-.33-1.66-2.77-1.89-4.67-.27-4.67-.27l-.44 1.94zM115 40.75l-2.9-1.85s-8.55 9.9-6.37 11.11c2.66 1.48 9.27-9.26 9.27-9.26z" transform="translate(-85.78 -4.52)"/><path class="cls-10" d="M106.76 45.27a.23.23 0 01-.22-.18c0-.11-2.09-11.07-2.37-13.39-.42-3.57-2.24-3.92-2.26-3.92a.22.22 0 01.07-.44c.09 0 2.17.41 2.63 4.31C104.88 34 107 44.89 107 45a.22.22 0 01-.18.26zm-2.07 6.15c-.42 0-1.55 0-4.69-9.3-1.53-4.53-2.81-9.12-2.82-9.12a.22.22 0 01.15-.28.24.24 0 01.28.16s1.28 4.62 2.81 9.14c2.74 8.11 3.9 9 4.27 9a3.63 3.63 0 003.06-1.74.24.24 0 01.31-.08.22.22 0 01.08.3 4.09 4.09 0 01-3.45 1.92zm-.85-25.21a.15.15 0 01-.09 0 9.73 9.73 0 00-2.33-.6c-1.49-.21-4.93-.34-5-.34a.22.22 0 01-.22-.23.23.23 0 01.23-.21c.14 0 3.5.12 5 .34a9.14 9.14 0 012.45.64.22.22 0 01.11.29.23.23 0 01-.15.11z" transform="translate(-85.78 -4.52)"/><path class="cls-10" d="M105.8 46.3a.22.22 0 01-.16-.38l2.36-2.37a.23.23 0 11.32.32L106 46.24a.25.25 0 01-.2.06z" transform="translate(-85.78 -4.52)"/><path class="cls-5" transform="rotate(-86.76 58.06 130.997)" d="M97.16 87.76h12.35v.22H97.16z"/><path d="M109.18 53.67l3.18 34.81L91.61 88s2-23.84 4.76-34.63z" transform="translate(-85.78 -4.52)" fill="#b0b0aa"/><path class="cls-5" d="M102.2 18.81h-.06a10.75 10.75 0 01-1.3-.84 3.48 3.48 0 01-1.11-1.59.09.09 0 01.07-.13.11.11 0 01.14.07 3.25 3.25 0 001 1.48 11.61 11.61 0 001.27.82.11.11 0 010 .15.1.1 0 01-.01.04z" transform="translate(-85.78 -4.52)"/></svg>